<svg xmlns="http://www.w3.org/2000/svg" viewBox="0 0 100 100">
  <circle cx="50" cy="50" r="48" fill="#1e40af"/>
  <circle cx="50" cy="50" r="32" fill="none" stroke="white" stroke-width="3"/>
  <circle cx="50" cy="50" r="3" fill="white"/>
  <g id="spokes">
    <line x1="50" y1="50" x2="50" y2="22" stroke="white" stroke-width="2"/>
    <line x1="50" y1="50" x2="50" y2="22" stroke="white" stroke-width="2" transform="rotate(15 50 50)"/>
    <line x1="50" y1="50" x2="50" y2="22" stroke="white" stroke-width="2" transform="rotate(30 50 50)"/>
    <line x1="50" y1="50" x2="50" y2="22" stroke="white" stroke-width="2" transform="rotate(45 50 50)"/>
    <line x1="50" y1="50" x2="50" y2="22" stroke="white" stroke-width="2" transform="rotate(60 50 50)"/>
    <line x1="50" y1="50" x2="50" y2="22" stroke="white" stroke-width="2" transform="rotate(75 50 50)"/>
    <line x1="50" y1="50" x2="50" y2="22" stroke="white" stroke-width="2" transform="rotate(90 50 50)"/>
    <line x1="50" y1="50" x2="50" y2="22" stroke="white" stroke-width="2" transform="rotate(105 50 50)"/>
    <line x1="50" y1="50" x2="50" y2="22" stroke="white" stroke-width="2" transform="rotate(120 50 50)"/>
    <line x1="50" y1="50" x2="50" y2="22" stroke="white" stroke-width="2" transform="rotate(135 50 50)"/>
    <line x1="50" y1="50" x2="50" y2="22" stroke="white" stroke-width="2" transform="rotate(150 50 50)"/>
    <line x1="50" y1="50" x2="50" y2="22" stroke="white" stroke-width="2" transform="rotate(165 50 50)"/>
    <line x1="50" y1="50" x2="50" y2="22" stroke="white" stroke-width="2" transform="rotate(180 50 50)"/>
    <line x1="50" y1="50" x2="50" y2="22" stroke="white" stroke-width="2" transform="rotate(195 50 50)"/>
    <line x1="50" y1="50" x2="50" y2="22" stroke="white" stroke-width="2" transform="rotate(210 50 50)"/>
    <line x1="50" y1="50" x2="50" y2="22" stroke="white" stroke-width="2" transform="rotate(225 50 50)"/>
    <line x1="50" y1="50" x2="50" y2="22" stroke="white" stroke-width="2" transform="rotate(240 50 50)"/>
    <line x1="50" y1="50" x2="50" y2="22" stroke="white" stroke-width="2" transform="rotate(255 50 50)"/>
    <line x1="50" y1="50" x2="50" y2="22" stroke="white" stroke-width="2" transform="rotate(270 50 50)"/>
    <line x1="50" y1="50" x2="50" y2="22" stroke="white" stroke-width="2" transform="rotate(285 50 50)"/>
    <line x1="50" y1="50" x2="50" y2="22" stroke="white" stroke-width="2" transform="rotate(300 50 50)"/>
    <line x1="50" y1="50" x2="50" y2="22" stroke="white" stroke-width="2" transform="rotate(315 50 50)"/>
    <line x1="50" y1="50" x2="50" y2="22" stroke="white" stroke-width="2" transform="rotate(330 50 50)"/>
    <line x1="50" y1="50" x2="50" y2="22" stroke="white" stroke-width="2" transform="rotate(345 50 50)"/>
  </g>
</svg>
